<svg xmlns="http://www.w3.org/2000/svg" xmlns:xlink="http://www.w3.org/1999/xlink" width="200" zoomAndPan="magnify" viewBox="0 0 150 44.999999" height="60" preserveAspectRatio="xMidYMid meet" version="1.0"><defs><g/><clipPath id="c300435362"><path d="M 0 19.117188 L 150 19.117188 L 150 28.957031 L 0 28.957031 Z M 0 19.117188 " clip-rule="nonzero"/></clipPath></defs><rect x="-15" width="180" fill="#ffffff" y="-4.5" height="53.999999" fill-opacity="1"/><rect x="-15" width="180" fill="#ffffff" y="-4.5" height="53.999999" fill-opacity="1"/><rect x="-15" width="180" fill="#202f4d" y="-4.5" height="53.999999" fill-opacity="1"/><g fill="#ffffff" fill-opacity="1"><g transform="translate(13.439665, 41.447179)"><g><path d="M 36.21875 -41 L 36.21875 -29.125 L 33.84375 -29.1875 L 33.71875 -32.25 C 29.507812 -35.269531 26.019531 -37.492188 23.25 -38.921875 L 23.25 -2.203125 L 28.078125 -2.140625 L 28.078125 0 L 8.265625 0 L 8.265625 -2.140625 L 13.09375 -2.203125 L 13.09375 -38.921875 C 10.320312 -37.492188 6.832031 -35.269531 2.625 -32.25 L 2.515625 -29.1875 L 0.125 -29.125 L 0.125 -41 Z M 36.21875 -41 "/></g></g></g><g fill="#ffffff" fill-opacity="1"><g transform="translate(49.787299, 41.447179)"><g><path d="M 42.828125 -41 L 42.828125 -38.859375 L 39.828125 -38.796875 L 39.828125 0 L 37.875 0 L 30.046875 -5.140625 C 28.535156 -3.304688 26.71875 -1.835938 24.59375 -0.734375 C 22.476562 0.367188 20.253906 0.921875 17.921875 0.921875 C 13.679688 0.921875 10.398438 -0.421875 8.078125 -3.109375 C 5.753906 -5.804688 4.59375 -9.988281 4.59375 -15.65625 L 4.59375 -38.796875 L 1.59375 -38.859375 L 1.59375 -41 L 17.921875 -41 L 17.921875 -38.859375 L 14.9375 -38.796875 L 14.9375 -17.1875 C 14.9375 -13.4375 15.707031 -10.632812 17.25 -8.78125 C 18.800781 -6.925781 20.925781 -6 23.625 -6 C 25.90625 -6 27.921875 -6.46875 29.671875 -7.40625 L 29.671875 -38.796875 L 26.671875 -38.859375 L 26.671875 -41 Z M 42.828125 -41 "/></g></g></g><g fill="#ffffff" fill-opacity="1"><g transform="translate(94.21219, 41.447179)"><g><path d="M 42.21875 -2.140625 L 42.21875 0 L 27.46875 0 L 19.15625 -16.390625 L 19.328125 -16.515625 C 18.390625 -16.429688 17.066406 -16.351562 15.359375 -16.28125 L 15.359375 -2.203125 L 18.359375 -2.140625 L 18.359375 0 L 2.203125 0 L 2.203125 -2.140625 L 5.203125 -2.203125 L 5.203125 -38.796875 L 2.203125 -38.859375 L 2.203125 -41 L 14.015625 -40.875 L 23.125 -41.609375 C 26.0625 -41.609375 28.582031 -41.066406 30.6875 -39.984375 C 32.789062 -38.898438 34.378906 -37.453125 35.453125 -35.640625 C 36.535156 -33.828125 37.078125 -31.816406 37.078125 -29.609375 C 37.078125 -27.085938 36.34375 -24.882812 34.875 -23 C 33.40625 -21.125 31.203125 -19.617188 28.265625 -18.484375 L 39.21875 -2.203125 Z M 15.359375 -18.65625 C 18.742188 -18.863281 21.394531 -19.789062 23.3125 -21.4375 C 25.226562 -23.09375 26.1875 -25.328125 26.1875 -28.140625 C 26.1875 -30.140625 25.71875 -31.957031 24.78125 -33.59375 C 23.84375 -35.226562 22.554688 -36.515625 20.921875 -37.453125 C 19.296875 -38.390625 17.441406 -38.859375 15.359375 -38.859375 Z M 15.359375 -18.65625 "/></g></g></g><g clip-path="url(#c300435362)"><path fill="#202f4d" d="M -6.121094 19.117188 L 156.25 19.117188 L 156.25 28.667969 L -6.121094 28.667969 Z M -6.121094 19.117188 " fill-opacity="1" fill-rule="nonzero"/></g><g fill="#ffffff" fill-opacity="1"><g transform="translate(6.428936, 26.865486)"><g><path d="M 2.234375 -5.59375 L 0.03125 -5.59375 L 0.03125 -6.640625 L 5.671875 -6.640625 L 5.671875 -5.59375 L 3.46875 -5.59375 L 3.46875 0 L 2.234375 0 Z M 2.234375 -5.59375 "/></g></g></g><g fill="#ffffff" fill-opacity="1"><g transform="translate(14.058971, 26.865486)"><g><path d="M 4 0.09375 C 3.320312 0.09375 2.707031 -0.0507812 2.15625 -0.34375 C 1.613281 -0.632812 1.1875 -1.039062 0.875 -1.5625 C 0.570312 -2.09375 0.421875 -2.675781 0.421875 -3.3125 C 0.421875 -3.957031 0.570312 -4.539062 0.875 -5.0625 C 1.1875 -5.59375 1.613281 -6.003906 2.15625 -6.296875 C 2.707031 -6.585938 3.320312 -6.734375 4 -6.734375 C 4.664062 -6.734375 5.269531 -6.585938 5.8125 -6.296875 C 6.363281 -6.003906 6.789062 -5.597656 7.09375 -5.078125 C 7.40625 -4.554688 7.5625 -3.96875 7.5625 -3.3125 C 7.5625 -2.664062 7.40625 -2.082031 7.09375 -1.5625 C 6.789062 -1.039062 6.363281 -0.632812 5.8125 -0.34375 C 5.269531 -0.0507812 4.664062 0.09375 4 0.09375 Z M 4 -0.984375 C 4.4375 -0.984375 4.832031 -1.082031 5.1875 -1.28125 C 5.539062 -1.476562 5.816406 -1.753906 6.015625 -2.109375 C 6.222656 -2.472656 6.328125 -2.875 6.328125 -3.3125 C 6.328125 -3.757812 6.222656 -4.160156 6.015625 -4.515625 C 5.816406 -4.878906 5.539062 -5.160156 5.1875 -5.359375 C 4.832031 -5.554688 4.4375 -5.65625 4 -5.65625 C 3.550781 -5.65625 3.148438 -5.554688 2.796875 -5.359375 C 2.441406 -5.160156 2.160156 -4.878906 1.953125 -4.515625 C 1.753906 -4.160156 1.65625 -3.757812 1.65625 -3.3125 C 1.65625 -2.875 1.753906 -2.472656 1.953125 -2.109375 C 2.160156 -1.753906 2.441406 -1.476562 2.796875 -1.28125 C 3.148438 -1.082031 3.550781 -0.984375 4 -0.984375 Z M 4 -0.984375 "/></g></g></g><g fill="#ffffff" fill-opacity="1"><g transform="translate(23.966633, 26.865486)"><g><path d="M 6.984375 0 L 6.984375 -4.40625 L 4.796875 -0.765625 L 4.25 -0.765625 L 2.0625 -4.34375 L 2.0625 0 L 0.890625 0 L 0.890625 -6.640625 L 1.90625 -6.640625 L 4.546875 -2.234375 L 7.125 -6.640625 L 8.140625 -6.640625 L 8.15625 0 Z M 6.984375 0 "/></g></g></g><g fill="#ffffff" fill-opacity="1"><g transform="translate(34.946685, 26.865486)"><g><path d="M 5.203125 -1.53125 L 1.875 -1.53125 L 1.21875 0 L -0.046875 0 L 2.9375 -6.640625 L 4.15625 -6.640625 L 7.15625 0 L 5.859375 0 Z M 4.796875 -2.5 L 3.53125 -5.40625 L 2.296875 -2.5 Z M 4.796875 -2.5 "/></g></g></g><g fill="#ffffff" fill-opacity="1"><g transform="translate(43.971774, 26.865486)"><g><path d="M 2.234375 -5.59375 L 0.03125 -5.59375 L 0.03125 -6.640625 L 5.671875 -6.640625 L 5.671875 -5.59375 L 3.46875 -5.59375 L 3.46875 0 L 2.234375 0 Z M 2.234375 -5.59375 "/></g></g></g><g fill="#ffffff" fill-opacity="1"><g transform="translate(51.601809, 26.865486)"><g><path d="M 5.875 -1.03125 L 5.875 0 L 0.890625 0 L 0.890625 -6.640625 L 5.734375 -6.640625 L 5.734375 -5.609375 L 2.125 -5.609375 L 2.125 -3.875 L 5.328125 -3.875 L 5.328125 -2.859375 L 2.125 -2.859375 L 2.125 -1.03125 Z M 5.875 -1.03125 "/></g></g></g><g fill="#ffffff" fill-opacity="1"><g transform="translate(59.877174, 26.865486)"><g/></g></g><g fill="#ffffff" fill-opacity="1"><g transform="translate(64.413441, 26.865486)"><g><path d="M 3.75 0.09375 C 2.832031 0.09375 2.113281 -0.160156 1.59375 -0.671875 C 1.082031 -1.191406 0.828125 -1.929688 0.828125 -2.890625 L 0.828125 -6.640625 L 2.0625 -6.640625 L 2.0625 -2.9375 C 2.0625 -1.632812 2.625 -0.984375 3.75 -0.984375 C 4.875 -0.984375 5.4375 -1.632812 5.4375 -2.9375 L 5.4375 -6.640625 L 6.65625 -6.640625 L 6.65625 -2.890625 C 6.65625 -1.929688 6.398438 -1.191406 5.890625 -0.671875 C 5.378906 -0.160156 4.664062 0.09375 3.75 0.09375 Z M 3.75 0.09375 "/></g></g></g><g fill="#ffffff" fill-opacity="1"><g transform="translate(73.818126, 26.865486)"><g><path d="M 6.796875 -6.640625 L 6.796875 0 L 5.78125 0 L 2.109375 -4.5 L 2.109375 0 L 0.890625 0 L 0.890625 -6.640625 L 1.90625 -6.640625 L 5.5625 -2.140625 L 5.5625 -6.640625 Z M 6.796875 -6.640625 "/></g></g></g><g fill="#ffffff" fill-opacity="1"><g transform="translate(83.422102, 26.865486)"><g/></g></g><g fill="#ffffff" fill-opacity="1"><g transform="translate(87.958363, 26.865486)"><g><path d="M 5.234375 0 L 3.875 -1.9375 C 3.820312 -1.9375 3.738281 -1.9375 3.625 -1.9375 L 2.125 -1.9375 L 2.125 0 L 0.890625 0 L 0.890625 -6.640625 L 3.625 -6.640625 C 4.195312 -6.640625 4.695312 -6.539062 5.125 -6.34375 C 5.550781 -6.15625 5.878906 -5.882812 6.109375 -5.53125 C 6.335938 -5.175781 6.453125 -4.757812 6.453125 -4.28125 C 6.453125 -3.78125 6.328125 -3.347656 6.078125 -2.984375 C 5.835938 -2.628906 5.488281 -2.363281 5.03125 -2.1875 L 6.5625 0 Z M 5.203125 -4.28125 C 5.203125 -4.695312 5.0625 -5.019531 4.78125 -5.25 C 4.507812 -5.476562 4.101562 -5.59375 3.5625 -5.59375 L 2.125 -5.59375 L 2.125 -2.953125 L 3.5625 -2.953125 C 4.101562 -2.953125 4.507812 -3.066406 4.78125 -3.296875 C 5.0625 -3.523438 5.203125 -3.851562 5.203125 -4.28125 Z M 5.203125 -4.28125 "/></g></g></g><g fill="#ffffff" fill-opacity="1"><g transform="translate(96.812626, 26.865486)"><g><path d="M 5.875 -1.03125 L 5.875 0 L 0.890625 0 L 0.890625 -6.640625 L 5.734375 -6.640625 L 5.734375 -5.609375 L 2.125 -5.609375 L 2.125 -3.875 L 5.328125 -3.875 L 5.328125 -2.859375 L 2.125 -2.859375 L 2.125 -1.03125 Z M 5.875 -1.03125 "/></g></g></g><g fill="#ffffff" fill-opacity="1"><g transform="translate(105.087988, 26.865486)"><g><path d="M 2.953125 0.09375 C 2.441406 0.09375 1.945312 0.0195312 1.46875 -0.125 C 0.988281 -0.269531 0.609375 -0.460938 0.328125 -0.703125 L 0.765625 -1.65625 C 1.035156 -1.445312 1.367188 -1.269531 1.765625 -1.125 C 2.160156 -0.988281 2.554688 -0.921875 2.953125 -0.921875 C 3.441406 -0.921875 3.804688 -1 4.046875 -1.15625 C 4.296875 -1.320312 4.421875 -1.535156 4.421875 -1.796875 C 4.421875 -1.984375 4.351562 -2.140625 4.21875 -2.265625 C 4.082031 -2.390625 3.910156 -2.484375 3.703125 -2.546875 C 3.492188 -2.617188 3.207031 -2.695312 2.84375 -2.78125 C 2.34375 -2.90625 1.929688 -3.023438 1.609375 -3.140625 C 1.296875 -3.265625 1.023438 -3.453125 0.796875 -3.703125 C 0.578125 -3.960938 0.46875 -4.3125 0.46875 -4.75 C 0.46875 -5.113281 0.566406 -5.445312 0.765625 -5.75 C 0.972656 -6.050781 1.273438 -6.289062 1.671875 -6.46875 C 2.078125 -6.644531 2.570312 -6.734375 3.15625 -6.734375 C 3.550781 -6.734375 3.945312 -6.679688 4.34375 -6.578125 C 4.738281 -6.484375 5.078125 -6.335938 5.359375 -6.140625 L 4.96875 -5.1875 C 4.675781 -5.351562 4.367188 -5.476562 4.046875 -5.5625 C 3.734375 -5.65625 3.429688 -5.703125 3.140625 -5.703125 C 2.648438 -5.703125 2.285156 -5.617188 2.046875 -5.453125 C 1.816406 -5.296875 1.703125 -5.082031 1.703125 -4.8125 C 1.703125 -4.625 1.769531 -4.46875 1.90625 -4.34375 C 2.039062 -4.21875 2.210938 -4.117188 2.421875 -4.046875 C 2.628906 -3.984375 2.910156 -3.910156 3.265625 -3.828125 C 3.765625 -3.710938 4.171875 -3.59375 4.484375 -3.46875 C 4.796875 -3.34375 5.066406 -3.148438 5.296875 -2.890625 C 5.523438 -2.640625 5.640625 -2.300781 5.640625 -1.875 C 5.640625 -1.507812 5.535156 -1.175781 5.328125 -0.875 C 5.128906 -0.582031 4.828125 -0.347656 4.421875 -0.171875 C 4.023438 0.00390625 3.535156 0.09375 2.953125 0.09375 Z M 2.953125 0.09375 "/></g></g></g><g fill="#ffffff" fill-opacity="1"><g transform="translate(112.974255, 26.865486)"><g><path d="M 3.625 -6.640625 C 4.195312 -6.640625 4.695312 -6.539062 5.125 -6.34375 C 5.550781 -6.15625 5.878906 -5.882812 6.109375 -5.53125 C 6.335938 -5.175781 6.453125 -4.757812 6.453125 -4.28125 C 6.453125 -3.800781 6.335938 -3.378906 6.109375 -3.015625 C 5.878906 -2.660156 5.550781 -2.390625 5.125 -2.203125 C 4.695312 -2.015625 4.195312 -1.921875 3.625 -1.921875 L 2.125 -1.921875 L 2.125 0 L 0.890625 0 L 0.890625 -6.640625 Z M 3.5625 -2.953125 C 4.101562 -2.953125 4.507812 -3.066406 4.78125 -3.296875 C 5.0625 -3.523438 5.203125 -3.851562 5.203125 -4.28125 C 5.203125 -4.695312 5.0625 -5.019531 4.78125 -5.25 C 4.507812 -5.476562 4.101562 -5.59375 3.5625 -5.59375 L 2.125 -5.59375 L 2.125 -2.953125 Z M 3.5625 -2.953125 "/></g></g></g><g fill="#ffffff" fill-opacity="1"><g transform="translate(121.78107, 26.865486)"><g><path d="M 0.890625 -6.640625 L 2.125 -6.640625 L 2.125 0 L 0.890625 0 Z M 0.890625 -6.640625 "/></g></g></g><g fill="#ffffff" fill-opacity="1"><g transform="translate(126.725408, 26.865486)"><g><path d="M 5.234375 0 L 3.875 -1.9375 C 3.820312 -1.9375 3.738281 -1.9375 3.625 -1.9375 L 2.125 -1.9375 L 2.125 0 L 0.890625 0 L 0.890625 -6.640625 L 3.625 -6.640625 C 4.195312 -6.640625 4.695312 -6.539062 5.125 -6.34375 C 5.550781 -6.15625 5.878906 -5.882812 6.109375 -5.53125 C 6.335938 -5.175781 6.453125 -4.757812 6.453125 -4.28125 C 6.453125 -3.78125 6.328125 -3.347656 6.078125 -2.984375 C 5.835938 -2.628906 5.488281 -2.363281 5.03125 -2.1875 L 6.5625 0 Z M 5.203125 -4.28125 C 5.203125 -4.695312 5.0625 -5.019531 4.78125 -5.25 C 4.507812 -5.476562 4.101562 -5.59375 3.5625 -5.59375 L 2.125 -5.59375 L 2.125 -2.953125 L 3.5625 -2.953125 C 4.101562 -2.953125 4.507812 -3.066406 4.78125 -3.296875 C 5.0625 -3.523438 5.203125 -3.851562 5.203125 -4.28125 Z M 5.203125 -4.28125 "/></g></g></g><g fill="#ffffff" fill-opacity="1"><g transform="translate(135.579671, 26.865486)"><g><path d="M 4 0.09375 C 3.320312 0.09375 2.707031 -0.0507812 2.15625 -0.34375 C 1.613281 -0.632812 1.1875 -1.039062 0.875 -1.5625 C 0.570312 -2.09375 0.421875 -2.675781 0.421875 -3.3125 C 0.421875 -3.957031 0.570312 -4.539062 0.875 -5.0625 C 1.1875 -5.59375 1.613281 -6.003906 2.15625 -6.296875 C 2.707031 -6.585938 3.320312 -6.734375 4 -6.734375 C 4.664062 -6.734375 5.269531 -6.585938 5.8125 -6.296875 C 6.363281 -6.003906 6.789062 -5.597656 7.09375 -5.078125 C 7.40625 -4.554688 7.5625 -3.96875 7.5625 -3.3125 C 7.5625 -2.664062 7.40625 -2.082031 7.09375 -1.5625 C 6.789062 -1.039062 6.363281 -0.632812 5.8125 -0.34375 C 5.269531 -0.0507812 4.664062 0.09375 4 0.09375 Z M 4 -0.984375 C 4.4375 -0.984375 4.832031 -1.082031 5.1875 -1.28125 C 5.539062 -1.476562 5.816406 -1.753906 6.015625 -2.109375 C 6.222656 -2.472656 6.328125 -2.875 6.328125 -3.3125 C 6.328125 -3.757812 6.222656 -4.160156 6.015625 -4.515625 C 5.816406 -4.878906 5.539062 -5.160156 5.1875 -5.359375 C 4.832031 -5.554688 4.4375 -5.65625 4 -5.65625 C 3.550781 -5.65625 3.148438 -5.554688 2.796875 -5.359375 C 2.441406 -5.160156 2.160156 -4.878906 1.953125 -4.515625 C 1.753906 -4.160156 1.65625 -3.757812 1.65625 -3.3125 C 1.65625 -2.875 1.753906 -2.472656 1.953125 -2.109375 C 2.160156 -1.753906 2.441406 -1.476562 2.796875 -1.28125 C 3.148438 -1.082031 3.550781 -0.984375 4 -0.984375 Z M 4 -0.984375 "/></g></g></g></svg>